<svg width="1536" height="638" viewBox="0 0 1536 638" fill="none" xmlns="http://www.w3.org/2000/svg">
<path d="M523.366 210.8H576.178C593.999 210.8 607.365 215.581 616.276 225.144C625.187 234.707 629.642 248.725 629.642 267.198V289.692C629.642 308.165 625.187 322.183 616.276 331.746C607.365 341.309 593.999 346.09 576.178 346.09H559.226V439H523.366V210.8ZM576.178 313.49C582.046 313.49 586.393 311.86 589.218 308.6C592.261 305.34 593.782 299.798 593.782 291.974V264.916C593.782 257.092 592.261 251.55 589.218 248.29C586.393 245.03 582.046 243.4 576.178 243.4H559.226V313.49H576.178ZM665.367 210.8H713.941L751.105 439H715.245L708.725 393.686V394.338H667.975L661.455 439H628.203L665.367 210.8ZM704.487 363.368L688.513 250.572H687.861L672.213 363.368H704.487ZM814.166 442.26C796.779 442.26 783.63 437.37 774.72 427.59C765.809 417.593 761.354 403.357 761.354 384.884V371.844H795.258V387.492C795.258 402.271 801.452 409.66 813.84 409.66C819.925 409.66 824.489 407.921 827.532 404.444C830.792 400.749 832.422 394.881 832.422 386.84C832.422 377.277 830.248 368.91 825.902 361.738C821.555 354.349 813.514 345.547 801.778 335.332C786.999 322.292 776.676 310.556 770.808 300.124C764.94 289.475 762.006 277.521 762.006 264.264C762.006 246.225 766.57 232.316 775.698 222.536C784.826 212.539 798.083 207.54 815.47 207.54C832.639 207.54 845.57 212.539 854.264 222.536C863.174 232.316 867.63 246.443 867.63 264.916V274.37H833.726V262.634C833.726 254.81 832.204 249.159 829.162 245.682C826.119 241.987 821.664 240.14 815.796 240.14C803.842 240.14 797.866 247.421 797.866 261.982C797.866 270.241 800.039 277.956 804.386 285.128C808.95 292.3 817.1 300.993 828.836 311.208C843.832 324.248 854.155 336.093 859.806 346.742C865.456 357.391 868.282 369.888 868.282 384.232C868.282 402.923 863.609 417.267 854.264 427.264C845.136 437.261 831.77 442.26 814.166 442.26ZM935.461 442.26C918.074 442.26 904.925 437.37 896.015 427.59C887.104 417.593 882.649 403.357 882.649 384.884V371.844H916.553V387.492C916.553 402.271 922.747 409.66 935.135 409.66C941.22 409.66 945.784 407.921 948.827 404.444C952.087 400.749 953.717 394.881 953.717 386.84C953.717 377.277 951.543 368.91 947.197 361.738C942.85 354.349 934.809 345.547 923.073 335.332C908.294 322.292 897.971 310.556 892.103 300.124C886.235 289.475 883.301 277.521 883.301 264.264C883.301 246.225 887.865 232.316 896.993 222.536C906.121 212.539 919.378 207.54 936.765 207.54C953.934 207.54 966.865 212.539 975.559 222.536C984.469 232.316 988.925 246.443 988.925 264.916V274.37H955.021V262.634C955.021 254.81 953.499 249.159 950.457 245.682C947.414 241.987 942.959 240.14 937.091 240.14C925.137 240.14 919.161 247.421 919.161 261.982C919.161 270.241 921.334 277.956 925.681 285.128C930.245 292.3 938.395 300.993 950.131 311.208C965.127 324.248 975.45 336.093 981.101 346.742C986.751 357.391 989.577 369.888 989.577 384.232C989.577 402.923 984.904 417.267 975.559 427.264C966.431 437.261 953.065 442.26 935.461 442.26ZM1010.14 210.8H1055.13L1090.01 347.394H1090.66V210.8H1122.61V439H1085.77L1042.74 272.414H1042.09V439H1010.14V210.8ZM1176.97 210.8H1225.54L1262.71 439H1226.85L1220.33 393.686V394.338H1179.58L1173.06 439H1139.81L1176.97 210.8ZM1216.09 363.368L1200.12 250.572H1199.46L1183.82 363.368H1216.09ZM1280.11 210.8H1315.97V306.97L1361.61 210.8H1397.47L1354.76 294.582L1398.12 439H1360.63L1330.31 337.288L1315.97 366.302V439H1280.11V210.8ZM1415.09 210.8H1512.89V243.4H1450.95V303.71H1500.18V336.31H1450.95V406.4H1512.89V439H1415.09V210.8Z" fill="#363636"/>
<ellipse cx="46" cy="112.5" rx="46" ry="45.5" fill="#C9C9C9"/>
<ellipse cx="447" cy="112.5" rx="46" ry="45.5" fill="#C9C9C9"/>
<line x1="13.5" y1="-13.5" x2="88.5" y2="-13.5" transform="matrix(-4.37114e-08 1 1 4.37114e-08 67 367)" stroke="#363636" stroke-width="27" stroke-linecap="round"/>
<line x1="13.5" y1="-13.5" x2="68.5244" y2="-13.5" transform="matrix(-0.707107 0.707107 0.707107 0.707107 115 338)" stroke="#363636" stroke-width="27" stroke-linecap="round"/>
<ellipse cx="46" cy="45.5" rx="46" ry="45.5" transform="matrix(1 0 0 -1 7 529)" fill="#363636"/>
<line x1="440.5" y1="380.5" x2="440.5" y2="455.5" stroke="#363636" stroke-width="27" stroke-linecap="round"/>
<line x1="398.092" y1="338" x2="437" y2="376.908" stroke="#363636" stroke-width="27" stroke-linecap="round"/>
<ellipse cx="441" cy="483.5" rx="46" ry="45.5" transform="rotate(180 441 483.5)" fill="#363636"/>
<path d="M247 96L247 81.5L247 67" stroke="#363636" stroke-width="27" stroke-linecap="round"/>
<ellipse cx="34" cy="33.5" rx="34" ry="33.5" transform="matrix(-1 0 0 1 281 0)" fill="#363636"/>
<path d="M247 551L247 565.5L247 580" stroke="#C9C9C9" stroke-width="27" stroke-linecap="round"/>
<ellipse cx="247" cy="604.5" rx="34" ry="33.5" transform="rotate(180 247 604.5)" fill="#C9C9C9"/>
<path d="M194.832 393.496C215.568 400.408 231.984 387.016 231.984 387.016C233.712 392.2 247.968 399.544 247.968 399.544C246.24 402.136 244.944 406.456 243.648 411.208C245.808 409.912 247.968 408.184 250.128 406.888C250.992 402.568 252.288 399.976 252.288 399.976C252.288 399.976 251.856 399.112 250.992 397.384C250.128 396.088 248.4 393.928 245.376 391.768C241.488 389.608 238.896 387.016 238.896 387.016C238.896 387.016 260.496 380.968 270.864 395.224L272.16 397.816C272.16 397.816 275.616 415.096 274.32 423.736C273.024 432.376 266.976 442.312 259.632 448.36C244.512 461.32 266.976 480.76 246.24 478.6C239.328 477.736 235.008 476.008 235.872 469.096C236.736 461.752 249.264 457 247.536 433.24C247.104 428.92 247.536 424.168 247.968 419.848C245.808 422.008 244.08 424.168 241.92 426.76C241.488 434.104 241.056 441.448 240.192 446.632C238.032 459.592 228.528 460.888 228.528 473.416C228.96 485.512 247.968 489.4 258.768 485.512C269.568 481.624 267.408 460.888 267.408 460.888C267.408 460.888 277.344 449.656 284.256 436.696C290.736 424.168 288.576 389.608 287.28 382.264C285.984 374.488 297.216 364.984 304.128 369.736C355 334.5 358.5 490 358.5 490L374.112 420.712C374.112 369.736 374.44 368.988 355 343.5C330.376 311.1 275.616 320.056 275.616 320.056C275.616 320.056 271.296 317.896 270 318.76C242.784 329.56 208.224 354.184 208.224 354.184C206.928 355.048 199.584 355.48 197.424 355.912C195.264 356.344 193.536 363.688 193.536 363.688C187.056 368.872 183.6 377.944 183.168 386.152C183.168 385.72 180.576 371.032 190.944 363.688C187.056 363.688 182.304 364.984 182.304 364.984C169.344 368.008 167.184 393.496 167.184 393.496C168.912 399.976 194.832 393.496 194.832 393.496ZM249.696 359.368C249.696 359.368 248.832 366.28 234.144 363.688C234.144 363.688 237.6 348.568 249.696 359.368Z" fill="black"/>
<path d="M218.16 399.112C212.976 400.408 207.792 400.84 203.904 400.408C206.496 406.888 212.544 413.8 228.528 415.96C228.528 415.96 219.888 411.64 218.16 399.112ZM177.552 401.272C185.76 425.896 207.36 419.416 207.792 419.848C195.696 415.96 193.968 405.592 193.968 398.68C190.512 399.544 183.6 401.272 177.552 401.272ZM219.888 462.616C230.256 425.032 263.088 403 263.088 403C248.832 408.616 231.984 421.576 221.616 432.808C212.544 442.744 209.52 453.112 209.52 453.112C217.728 442.312 224.64 436.696 224.64 436.696C218.16 447.064 219.888 462.616 219.888 462.616Z" fill="black"/>
<path d="M46 97L46 196.431C46 198.703 46.9654 200.867 48.6555 202.384L114.5 261.5" stroke="#C9C9C9" stroke-width="28" stroke-linecap="round"/>
<path d="M446.5 96L446.5 195.431C446.5 197.703 445.535 199.867 443.845 201.384L378 260.5" stroke="#C9C9C9" stroke-width="28" stroke-linecap="round"/>
<path d="M324 257V198C324 168.729 300.271 145 271 145H247H223C193.729 145 170 168.729 170 198V257" stroke="black" stroke-width="16"/>
<path d="M192.943 519H165C142.356 519 124 500.644 124 478V314C124 291.356 142.356 273 165 273H329C351.644 273 370 291.356 370 314V478C370 500.644 351.644 519 329 519H300.535" stroke="black" stroke-width="19"/>
</svg>
