<svg width="493" height="638" viewBox="0 0 493 638" fill="none" xmlns="http://www.w3.org/2000/svg">
<ellipse cx="46" cy="112.5" rx="46" ry="45.5" fill="#C9C9C9"/>
<ellipse cx="447" cy="112.5" rx="46" ry="45.5" fill="#C9C9C9"/>
<line x1="13.5" y1="-13.5" x2="88.5" y2="-13.5" transform="matrix(-4.37114e-08 1 1 4.37114e-08 67 367)" stroke="#363636" stroke-width="27" stroke-linecap="round"/>
<line x1="13.5" y1="-13.5" x2="68.5244" y2="-13.5" transform="matrix(-0.707107 0.707107 0.707107 0.707107 115 338)" stroke="#363636" stroke-width="27" stroke-linecap="round"/>
<ellipse cx="46" cy="45.5" rx="46" ry="45.5" transform="matrix(1 0 0 -1 7 529)" fill="#363636"/>
<line x1="440.5" y1="380.5" x2="440.5" y2="455.5" stroke="#363636" stroke-width="27" stroke-linecap="round"/>
<line x1="398.092" y1="338" x2="437" y2="376.908" stroke="#363636" stroke-width="27" stroke-linecap="round"/>
<ellipse cx="441" cy="483.5" rx="46" ry="45.5" transform="rotate(180 441 483.5)" fill="#363636"/>
<path d="M247 96L247 81.5L247 67" stroke="#363636" stroke-width="27" stroke-linecap="round"/>
<ellipse cx="34" cy="33.5" rx="34" ry="33.5" transform="matrix(-1 0 0 1 281 0)" fill="#363636"/>
<path d="M247 551L247 565.5L247 580" stroke="#C9C9C9" stroke-width="27" stroke-linecap="round"/>
<ellipse cx="247" cy="604.5" rx="34" ry="33.5" transform="rotate(180 247 604.5)" fill="#C9C9C9"/>
<path d="M194.832 393.496C215.568 400.408 231.984 387.016 231.984 387.016C233.712 392.2 247.968 399.544 247.968 399.544C246.24 402.136 244.944 406.456 243.648 411.208C245.808 409.912 247.968 408.184 250.128 406.888C250.992 402.568 252.288 399.976 252.288 399.976C252.288 399.976 251.856 399.112 250.992 397.384C250.128 396.088 248.4 393.928 245.376 391.768C241.488 389.608 238.896 387.016 238.896 387.016C238.896 387.016 260.496 380.968 270.864 395.224L272.16 397.816C272.16 397.816 275.616 415.096 274.32 423.736C273.024 432.376 266.976 442.312 259.632 448.36C244.512 461.32 266.976 480.76 246.24 478.6C239.328 477.736 235.008 476.008 235.872 469.096C236.736 461.752 249.264 457 247.536 433.24C247.104 428.92 247.536 424.168 247.968 419.848C245.808 422.008 244.08 424.168 241.92 426.76C241.488 434.104 241.056 441.448 240.192 446.632C238.032 459.592 228.528 460.888 228.528 473.416C228.96 485.512 247.968 489.4 258.768 485.512C269.568 481.624 267.408 460.888 267.408 460.888C267.408 460.888 277.344 449.656 284.256 436.696C290.736 424.168 288.576 389.608 287.28 382.264C285.984 374.488 297.216 364.984 304.128 369.736C355 334.5 358.5 490 358.5 490L374.112 420.712C374.112 369.736 374.44 368.988 355 343.5C330.376 311.1 275.616 320.056 275.616 320.056C275.616 320.056 271.296 317.896 270 318.76C242.784 329.56 208.224 354.184 208.224 354.184C206.928 355.048 199.584 355.48 197.424 355.912C195.264 356.344 193.536 363.688 193.536 363.688C187.056 368.872 183.6 377.944 183.168 386.152C183.168 385.72 180.576 371.032 190.944 363.688C187.056 363.688 182.304 364.984 182.304 364.984C169.344 368.008 167.184 393.496 167.184 393.496C168.912 399.976 194.832 393.496 194.832 393.496ZM249.696 359.368C249.696 359.368 248.832 366.28 234.144 363.688C234.144 363.688 237.6 348.568 249.696 359.368Z" fill="black"/>
<path d="M218.16 399.112C212.976 400.408 207.792 400.84 203.904 400.408C206.496 406.888 212.544 413.8 228.528 415.96C228.528 415.96 219.888 411.64 218.16 399.112ZM177.552 401.272C185.76 425.896 207.36 419.416 207.792 419.848C195.696 415.96 193.968 405.592 193.968 398.68C190.512 399.544 183.6 401.272 177.552 401.272ZM219.888 462.616C230.256 425.032 263.088 403 263.088 403C248.832 408.616 231.984 421.576 221.616 432.808C212.544 442.744 209.52 453.112 209.52 453.112C217.728 442.312 224.64 436.696 224.64 436.696C218.16 447.064 219.888 462.616 219.888 462.616Z" fill="black"/>
<path d="M46 97L46 196.431C46 198.703 46.9654 200.867 48.6555 202.384L114.5 261.5" stroke="#C9C9C9" stroke-width="28" stroke-linecap="round"/>
<path d="M446.5 96L446.5 195.431C446.5 197.703 445.535 199.867 443.845 201.384L378 260.5" stroke="#C9C9C9" stroke-width="28" stroke-linecap="round"/>
<path d="M324 257V198C324 168.729 300.271 145 271 145H247H223C193.729 145 170 168.729 170 198V257" stroke="black" stroke-width="16"/>
<path d="M192.943 519H165C142.356 519 124 500.644 124 478V314C124 291.356 142.356 273 165 273H329C351.644 273 370 291.356 370 314V478C370 500.644 351.644 519 329 519H300.535" stroke="black" stroke-width="19"/>
</svg>
