<?xml version="1.0" encoding="utf-8"?>
<!-- Generator: Adobe Illustrator 24.1.1, SVG Export Plug-In . SVG Version: 6.00 Build 0)  -->
<svg version="1.1" id="Layer_1" xmlns="http://www.w3.org/2000/svg" xmlns:xlink="http://www.w3.org/1999/xlink" x="0px" y="0px"
	 viewBox="0 0 512 512" style="enable-background:new 0 0 512 512;" xml:space="preserve">
<style type="text/css">
	.st0{fill:#E24329;}
	.st1{fill:#FC6D26;}
	.st2{fill:#FCA326;}
</style>
<g>
	<polygon class="st0" points="256,491.8 256,491.8 350.3,201.7 161.7,201.7 	"/>
	<polygon class="st1" points="256,491.8 161.7,201.7 29.6,201.7 	"/>
	<path class="st2" d="M29.6,201.7L29.6,201.7L1,289.8c-2.6,8,0.2,16.9,7.1,21.8l248,180.1L29.6,201.7z"/>
	<path class="st0" d="M29.6,201.7h132.1L104.9,26.9c-2.9-9-15.6-9-18.6,0L29.6,201.7z"/>
	<polygon class="st1" points="256,491.8 350.3,201.7 482.4,201.7 	"/>
	<path class="st2" d="M482.4,201.7L482.4,201.7l28.6,88.2c2.6,8-0.2,16.9-7.1,21.8L256,491.8L482.4,201.7z"/>
	<path class="st0" d="M482.4,201.7H350.3l56.8-174.8c2.9-9,15.6-9,18.6,0L482.4,201.7z"/>
</g>
</svg>
